# xmcd
#
# Track frame offsets:
#	150
#	12280
#	22952
#	33687
#	43642
#	53915
#	64335
#	77007
#	88407
#	98270
#	109940
#	121005
#	131770
#	143280
#	153855
#	165562
#	176962
#	187470
#	199025
#	209942
#	219567
#	232157
#	244457
#	257037
#	268082
#	278075
#	289117
#	300712
#
# Disc length: 4141 seconds
#
# Revision: 1
# Processed by: cddbd v1.4PL0 Copyright (c) Steve Scherf et al.
# Submitted via: CDmax 1.8
#
DISCID=a7102b1c
DTITLE=Jess Willard - Honky Tonk Hardwood Floor
DYEAR=1900
DGENRE=
TTITLE0=Honky Tonk Hardwood Floor
TTITLE1=Java Junction
TTITLE2=Hang On The Ball And Chain
TTITLE3=Gonna Take That Fast Train
TTITLE4=Boogie Woogie Preachin´ Man
TTITLE5=Oil The Hinges On Your Door
TTITLE6=Turn That Gun Around
TTITLE7=My Mail Order Mama
TTITLE8=Truck Driver´s Boogie
TTITLE9=Mistreated Blues
TTITLE10=Lonesome Dollar Bill
TTITLE11=Honky Tonk Boogie
TTITLE12=Honky Tonkin´ All The Time
TTITLE13=Cadillac Blues
TTITLE14=Drinkin´ At The Bar
TTITLE15=´Til The Day I Die
TTITLE16=Saturday Night For Love
TTITLE17=Buy Me A Bottle Of Beer
TTITLE18=Don´t Hold Her So Close
TTITLE19=Every Dog Has His Day
TTITLE20=Slippin´ Around With Jole Blon
TTITLE21=Trouble Then Satisfaction
TTITLE22=New Panhandle Rag
TTITLE23=Two Dollar Diamond Ring
TTITLE24=If You´ve Got The Money, I´ve Got The Time
TTITLE25=Little Shoes
TTITLE26=One Way Street
TTITLE27=Someday You´ll Remember 
EXTD=
EXTT0=
EXTT1=
EXTT2=
EXTT3=
EXTT4=
EXTT5=
EXTT6=
EXTT7=
EXTT8=
EXTT9=
EXTT10=
EXTT11=
EXTT12=
EXTT13=
EXTT14=
EXTT15=
EXTT16=
EXTT17=
EXTT18=
EXTT19=
EXTT20=
EXTT21=
EXTT22=
EXTT23=
EXTT24=
EXTT25=
EXTT26=
EXTT27=
PLAYORDER=
